<svg width="180" height="180" version="1.1" xmlns="http://www.w3.org/2000/svg" desc="Created with imagetracer.js version 1.2.6" ><path fill="rgb(233,238,241)" stroke="rgb(233,238,241)" stroke-width="1" opacity="1" d="M 81.5 67 L 82 69.5 L 81 69.5 L 81.5 67 Z " /><path fill="rgb(233,238,241)" stroke="rgb(233,238,241)" stroke-width="1" opacity="1" d="M 97.5 67 L 99 72.5 L 98 72.5 L 97.5 67 Z " /><path fill="rgb(233,238,241)" stroke="rgb(233,238,241)" stroke-width="1" opacity="1" d="M 132.5 67 L 133 71.5 L 132 71.5 L 132.5 67 Z " /><path fill="rgb(233,238,241)" stroke="rgb(233,238,241)" stroke-width="1" opacity="1" d="M 46.5 70 L 47 72.5 L 46 72.5 L 46.5 70 Z " /><path fill="rgb(233,238,241)" stroke="rgb(233,238,241)" stroke-width="1" opacity="1" d="M 131.5 75 L 132 78.5 L 131 78.5 L 131.5 75 Z " /><path fill="rgb(233,238,241)" stroke="rgb(233,238,241)" stroke-width="1" opacity="1" d="M 47.5 76 L 48 79.5 L 47 79.5 L 47.5 76 Z " /><path fill="rgb(233,238,241)" stroke="rgb(233,238,241)" stroke-width="1" opacity="1" d="M 48.5 82 L 49 85.5 L 48 85.5 L 48.5 82 Z " /><path fill="rgb(233,238,241)" stroke="rgb(233,238,241)" stroke-width="1" opacity="1" d="M 58.5 82 L 59 87.5 L 58 87.5 L 58.5 82 Z " /><path fill="rgb(233,238,241)" stroke="rgb(233,238,241)" stroke-width="1" opacity="1" d="M 49.5 88 L 50 90.5 L 49 90.5 L 49.5 88 Z " /><path fill="rgb(233,238,241)" stroke="rgb(233,238,241)" stroke-width="1" opacity="1" d="M 74.5 88 L 75 90.5 L 74 90.5 L 74.5 88 Z " /><path fill="rgb(233,238,241)" stroke="rgb(233,238,241)" stroke-width="1" opacity="1" d="M 83 88 L 85 88.5 L 83.5 91 L 83 88 Z " /><path fill="rgb(233,238,241)" stroke="rgb(233,238,241)" stroke-width="1" opacity="1" d="M 94.5 88 L 98 96.5 L 97 96.5 L 94.5 88 Z " /><path fill="rgb(233,238,241)" stroke="rgb(233,238,241)" stroke-width="1" opacity="1" d="M 104.5 88 L 105 90.5 L 104 90.5 L 104.5 88 Z " /><path fill="rgb(233,238,241)" stroke="rgb(233,238,241)" stroke-width="1" opacity="1" d="M 129.5 88 L 130 90.5 L 129 90.5 L 129.5 88 Z " /><path fill="rgb(233,238,241)" stroke="rgb(233,238,241)" stroke-width="1" opacity="1" d="M 82.5 92 L 83 93.5 L 81.5 97 L 81 94.5 L 82.5 92 Z " /><path fill="rgb(233,238,241)" stroke="rgb(233,238,241)" stroke-width="1" opacity="1" d="M 50.5 94 L 51 97.5 L 50 97.5 L 50.5 94 Z " /><path fill="rgb(233,238,241)" stroke="rgb(233,238,241)" stroke-width="1" opacity="1" d="M 72.5 94 L 73 96.5 L 72 96.5 L 72.5 94 Z " /><path fill="rgb(233,238,241)" stroke="rgb(233,238,241)" stroke-width="1" opacity="1" d="M 71.5 98 L 70.5 100 L 51 99.5 L 70.5 99 L 71.5 98 Z " /><path fill="rgb(233,238,241)" stroke="rgb(233,238,241)" stroke-width="1" opacity="1" d="M 80.5 98 L 81.5 99 L 97.5 99 L 99 98.5 L 97.5 100 L 81.5 100 L 80.5 98 Z " /><path fill="rgb(233,238,241)" stroke="rgb(233,238,241)" stroke-width="1" opacity="1" d="M 107.5 98 L 108.5 99 L 118 99 L 117.5 103 L 117 100 L 108.5 100 L 107.5 98 Z " /><path fill="rgb(233,238,241)" stroke="rgb(233,238,241)" stroke-width="1" opacity="1" d="M 127.5 98 L 128 102.5 L 127 102.5 L 127.5 98 Z " /><path fill="rgb(233,238,241)" stroke="rgb(233,238,241)" stroke-width="1" opacity="1" d="M 126.5 105 L 127 107.5 L 126 107.5 L 126.5 105 Z " /><path fill="rgb(233,238,241)" stroke="rgb(233,238,241)" stroke-width="1" opacity="1" d="M 52.5 107 L 53 110.5 L 52 110.5 L 52.5 107 Z " /><path fill="rgb(233,238,241)" stroke="rgb(233,238,241)" stroke-width="1" opacity="1" d="M 77.5 107 L 78 108.5 L 76.5 112 L 76 109.5 L 77.5 107 Z " /><path fill="rgb(233,238,241)" stroke="rgb(233,238,241)" stroke-width="1" opacity="1" d="M 100.5 107 Q 102.8 106.3 102 108.5 L 100.5 107 Z " /><path fill="rgb(233,238,241)" stroke="rgb(233,238,241)" stroke-width="1" opacity="1" d="M 102.5 110 L 104 114.5 L 103 114.5 L 102.5 110 Z " /><path fill="rgb(233,238,241)" stroke="rgb(233,238,241)" stroke-width="1" opacity="1" d="M 125.5 110 L 126 112.5 L 125 112.5 L 125.5 110 Z " /><path fill="rgb(233,238,241)" stroke="rgb(233,238,241)" stroke-width="1" opacity="1" d="M 53.5 113 L 54 116.5 L 53 116.5 L 53.5 113 Z " /><path fill="rgb(233,238,241)" stroke="rgb(233,238,241)" stroke-width="1" opacity="1" d="M 75.5 113 L 76 114.5 L 75 118 L 103.5 118 L 104 116.5 L 105 116.5 L 104.5 119 L 74 119 L 75.5 113 Z " /><path fill="rgb(233,238,241)" stroke="rgb(233,238,241)" stroke-width="1" opacity="1" d="M 124.5 117 L 125 119 L 114 118.5 L 123.5 118 L 124.5 117 Z " /><path fill="rgb(233,238,241)" stroke="rgb(233,238,241)" stroke-width="1" opacity="1" d="M 54.5 118 L 65 118.5 L 54.5 119 L 54.5 118 Z " /><path fill="rgb(233,238,241)" stroke="rgb(233,238,241)" stroke-width="1" opacity="1" d="M 49.5 124 L 53 124.5 L 49 125.5 L 55 127 Q 53.5 123.2 56.5 124 L 59 129.5 L 57 128.5 L 56.5 127 L 54 128.5 L 54.5 130 L 49 130 L 49 127.5 L 48 125.5 L 49.5 124 Z " /><path fill="rgb(233,238,241)" stroke="rgb(233,238,241)" stroke-width="1" opacity="1" d="M 59 124 Q 61.7 122.9 61 125.5 L 63 126.5 L 64.5 124 L 65 126.5 L 62.5 130 L 59 124 Z " /><path fill="rgb(233,238,241)" stroke="rgb(233,238,241)" stroke-width="1" opacity="1" d="M 67 124 L 69 124.5 L 68.5 126 L 70.5 127 L 72.5 124 L 82 124.5 L 78 125 L 78.5 128 L 79 126 L 82 126.5 L 82 128.5 L 81.5 130 L 72.5 130 L 70.5 130 Q 67.9 130.8 69 127.5 L 67.5 128 L 66 128.5 L 66.5 130 Q 64.3 130.8 65 128.5 L 67 124 Z M 73 125 L 73 128 L 76 127 L 73 125 Z " /><path fill="rgb(233,238,241)" stroke="rgb(233,238,241)" stroke-width="1" opacity="1" d="M 85 124 Q 89.3 123 90.5 126 L 112 126 L 112.5 124 L 113 126 Q 117.9 124.4 116 130 L 113.5 129 L 109.5 130 L 107.5 127 L 106 130 L 101.5 129 Q 100 131.5 94.5 130 L 92.5 130 Q 88.8 131.3 90 127.5 L 89 127.5 L 88.5 130 L 86.5 130 L 85 129.5 L 85 124 Z " /><path fill="rgb(233,238,241)" stroke="rgb(233,238,241)" stroke-width="1" opacity="1" d="M 119.5 124 L 120 128 L 123.5 126 L 127 126 L 127.5 124 L 128 128 L 130 127.5 L 129.5 126 L 132 127.5 L 130.5 130 L 127.5 129 L 123.5 130 L 121.5 130 L 119 130 L 119.5 124 Z " /><path fill="rgb(253,253,253)" stroke="rgb(253,253,253)" stroke-width="1" opacity="1" d="M 79.5 65 L 81.5 66 L 83 65.5 L 83 67.5 Q 84.5 71.9 81.5 71 L 82 69.5 L 81.5 67 L 45.5 67 L 45.5 66 L 78.5 66 L 79.5 65 Z " /><path fill="rgb(253,253,253)" stroke="rgb(253,253,253)" stroke-width="1" opacity="1" d="M 98.5 65 L 99.5 66 L 113.5 66 L 115.5 66 L 128.5 66 L 130.5 65 L 134 67.5 L 132.5 67 L 97 66.5 L 98.5 65 Z " /><path fill="rgb(253,253,253)" stroke="rgb(253,253,253)" stroke-width="1" opacity="1" d="M 45.5 68 L 46 72 L 43 71.5 L 45.5 68 Z " /><path fill="rgb(253,253,253)" stroke="rgb(253,253,253)" stroke-width="1" opacity="1" d="M 97.5 71 L 100 78.5 L 99 78.5 L 97.5 71 Z " /><path fill="rgb(253,253,253)" stroke="rgb(253,253,253)" stroke-width="1" opacity="1" d="M 80 72 L 82 72.5 L 77.5 80 L 58 79.5 L 77.5 79 L 79 77.5 L 80 72 Z " /><path fill="rgb(253,253,253)" stroke="rgb(253,253,253)" stroke-width="1" opacity="1" d="M 132.5 72 L 134 74.5 L 133.5 76 L 135.5 75 L 136.5 77 Q 132.8 77.8 132 75.5 L 132.5 72 Z " /><path fill="rgb(253,253,253)" stroke="rgb(253,253,253)" stroke-width="1" opacity="1" d="M 132.5 78 L 131.5 80 L 101 79.5 L 131.5 79 L 132.5 78 Z " /><path fill="rgb(253,253,253)" stroke="rgb(253,253,253)" stroke-width="1" opacity="1" d="M 46.5 80 Q 49.1 79.2 48 82.5 L 47 82.5 L 46.5 80 Z " /><path fill="rgb(253,253,253)" stroke="rgb(253,253,253)" stroke-width="1" opacity="1" d="M 46.5 85 L 49 86.5 Q 50.5 90.9 47.5 90 L 46 90.5 L 48 87.5 L 46 87.5 L 46.5 85 Z " /><path fill="rgb(253,253,253)" stroke="rgb(253,253,253)" stroke-width="1" opacity="1" d="M 59.5 85 L 60.5 86 L 71.5 87 L 74.5 86 L 76 88.5 L 74.5 88 L 59.5 88 L 59.5 85 Z " /><path fill="rgb(253,253,253)" stroke="rgb(253,253,253)" stroke-width="1" opacity="1" d="M 83.5 86 L 94.5 86 L 97 87.5 Q 95.8 90.2 94.5 88 L 86.5 88 L 85.5 87 Q 83.7 89.5 83.5 86 Z " /><path fill="rgb(253,253,253)" stroke="rgb(253,253,253)" stroke-width="1" opacity="1" d="M 104 86 L 125.5 86 L 126.5 87 L 128.5 87 L 130 87.5 L 128.5 88 L 126.5 88 L 104.5 88 L 103.5 89 L 104 87.5 L 104 86 Z " /><path fill="rgb(253,253,253)" stroke="rgb(253,253,253)" stroke-width="1" opacity="1" d="M 82.5 88 L 83 91.5 L 82 94 L 79 92.5 L 81 92.5 L 82.5 88 Z " /><path fill="rgb(253,253,253)" stroke="rgb(253,253,253)" stroke-width="1" opacity="1" d="M 96 90 Q 99.7 88.7 98 94.5 L 99.5 97 L 100.5 94 L 101 96.5 L 98 98 L 96 90 Z " /><path fill="rgb(253,253,253)" stroke="rgb(253,253,253)" stroke-width="1" opacity="1" d="M 49.5 91 L 50 94 Q 47.3 95.1 48 92.5 L 49.5 91 Z " /><path fill="rgb(253,253,253)" stroke="rgb(253,253,253)" stroke-width="1" opacity="1" d="M 74.5 91 L 75 92.5 L 74 97.5 L 71.5 101 L 50.5 101 L 50 98.5 L 51 98.5 L 51.5 100 L 70.5 100 L 74.5 91 Z " /><path fill="rgb(253,253,253)" stroke="rgb(253,253,253)" stroke-width="1" opacity="1" d="M 129.5 91 L 130 99.5 L 131 100.5 L 128 98.5 L 129.5 91 Z " /><path fill="rgb(253,253,253)" stroke="rgb(253,253,253)" stroke-width="1" opacity="1" d="M 105.5 94 L 108 101 Q 104.7 102.3 106 97.5 Q 102.3 95.7 105.5 94 Z " /><path fill="rgb(253,253,253)" stroke="rgb(253,253,253)" stroke-width="1" opacity="1" d="M 79.5 95 Q 82.5 94.2 81 98 L 79 97.5 L 79.5 95 Z " /><path fill="rgb(253,253,253)" stroke="rgb(253,253,253)" stroke-width="1" opacity="1" d="M 79 99 L 81.5 100 L 97.5 100 L 103 99 L 102.5 101 L 79 101 L 79 99 Z " /><path fill="rgb(253,253,253)" stroke="rgb(253,253,253)" stroke-width="1" opacity="1" d="M 112.5 100 Q 119.3 97.8 117 104.5 L 116 104.5 L 115 102.5 L 115.5 101 Q 111.5 101.8 112.5 100 Z " /><path fill="rgb(253,253,253)" stroke="rgb(253,253,253)" stroke-width="1" opacity="1" d="M 127 103 Q 129.7 101.9 129 104.5 L 129.5 106 L 128 106.5 L 129 110.5 L 126 112 L 127 103 Z " /><path fill="rgb(253,253,253)" stroke="rgb(253,253,253)" stroke-width="1" opacity="1" d="M 78 104 L 83 104.5 L 79 105.5 L 96.5 106 L 101.5 105 L 103.5 110 L 105 109.5 L 103.5 112 L 101.5 106 L 100.5 107 L 77 107 L 75.5 110 L 76 108.5 L 75 106.5 L 78 105.5 L 78 104 Z " /><path fill="rgb(253,253,253)" stroke="rgb(253,253,253)" stroke-width="1" opacity="1" d="M 52.5 105 L 54.5 105 L 64.5 106 L 66.5 105 L 69 106.5 L 52 107 L 52.5 105 Z " /><path fill="rgb(253,253,253)" stroke="rgb(253,253,253)" stroke-width="1" opacity="1" d="M 110.5 106 L 109.5 109 Q 112.1 108.2 111 111.5 L 113 115.5 L 111 114.5 L 111 112 Q 107.2 113.5 108 110.5 L 108 108.5 L 110.5 106 Z " /><path fill="rgb(253,253,253)" stroke="rgb(253,253,253)" stroke-width="1" opacity="1" d="M 112.5 106 L 116 106.5 L 112.5 107 L 112.5 106 Z " /><path fill="rgb(253,253,253)" stroke="rgb(253,253,253)" stroke-width="1" opacity="1" d="M 50 108 Q 53 106.8 52 110.5 Q 54.3 111.8 53 116.5 L 55 119.5 L 53 118.5 L 51 115.5 L 52 111.5 L 50 111.5 L 50 108 Z " /><path fill="rgb(253,253,253)" stroke="rgb(253,253,253)" stroke-width="1" opacity="1" d="M 155 108 L 158 108.5 L 155 110.5 L 155 108 Z " /><path fill="rgb(253,253,253)" stroke="rgb(253,253,253)" stroke-width="1" opacity="1" d="M 176 108 L 179 108.5 L 176 110.5 L 176 108 Z " /><path fill="rgb(253,253,253)" stroke="rgb(253,253,253)" stroke-width="1" opacity="1" d="M 67.5 111 L 69 114 Q 66.3 112.9 67 115.5 L 66 115.5 L 67.5 111 Z " /><path fill="rgb(253,253,253)" stroke="rgb(253,253,253)" stroke-width="1" opacity="1" d="M 75.5 112 L 75 113.5 L 73.5 119 L 72 115.5 L 74 115 L 75.5 112 Z " /><path fill="rgb(253,253,253)" stroke="rgb(253,253,253)" stroke-width="1" opacity="1" d="M 135.5 112 Q 138.5 111.2 137 115 L 133 114.5 L 135.5 112 Z " /><path fill="rgb(253,253,253)" stroke="rgb(253,253,253)" stroke-width="1" opacity="1" d="M 104.5 113 L 106.5 117 L 108 116.5 L 107.5 119 Q 103.8 120.3 105 116.5 L 104.5 113 Z " /><path fill="rgb(253,253,253)" stroke="rgb(253,253,253)" stroke-width="1" opacity="1" d="M 125.5 113 L 127 118.5 Q 125.8 121.3 120.5 120 L 120.5 119 L 125 119 L 125.5 113 Z " /><path fill="rgb(253,253,253)" stroke="rgb(253,253,253)" stroke-width="1" opacity="1" d="M 112.5 117 Q 115.1 116.3 114 119 L 117 119 L 117 120.5 L 115.5 120 L 112.5 117 Z " /><path fill="rgb(253,253,253)" stroke="rgb(253,253,253)" stroke-width="1" opacity="1" d="M 59.5 122 Q 61.8 121.3 61 123.5 L 58 124.5 L 62 129.5 L 59 129.5 L 56 123.5 Q 57.8 125.1 59.5 122 Z " /><path fill="rgb(253,253,253)" stroke="rgb(253,253,253)" stroke-width="1" opacity="1" d="M 75.5 122 L 76.5 124 L 74.5 124 L 73 123.5 L 75.5 122 Z " /><path fill="rgb(253,253,253)" stroke="rgb(253,253,253)" stroke-width="1" opacity="1" d="M 87 122 L 89 122.5 L 87 123.5 L 87 122 Z " /><path fill="rgb(253,253,253)" stroke="rgb(253,253,253)" stroke-width="1" opacity="1" d="M 67.5 123 L 67 124.5 L 65 130 L 63 129.5 L 65 124 L 67.5 123 Z " /><path fill="rgb(253,253,253)" stroke="rgb(253,253,253)" stroke-width="1" opacity="1" d="M 78.5 123 L 81 123.5 L 78.5 124 L 78.5 123 Z " /><path fill="rgb(253,253,253)" stroke="rgb(253,253,253)" stroke-width="1" opacity="1" d="M 110.5 123 L 114 124.5 L 113.5 126 L 112.5 124 L 111.5 126 L 110.5 123 Z " /><path fill="rgb(253,253,253)" stroke="rgb(253,253,253)" stroke-width="1" opacity="1" d="M 119.5 123 L 121 123 Q 119.5 126.7 122.5 126 L 121.5 128 Q 118.5 128.9 120 124.5 L 119 124.5 Q 121.3 131.8 116 130 L 116 126 Q 118.7 127.1 118 124.5 L 119.5 123 Z " /><path fill="rgb(253,253,253)" stroke="rgb(253,253,253)" stroke-width="1" opacity="1" d="M 128.5 123 L 130 125.5 L 129.5 128 Q 126.6 128.4 128.5 123 Z " /><path fill="rgb(253,253,253)" stroke="rgb(253,253,253)" stroke-width="1" opacity="1" d="M 46.5 124 L 49 124.5 Q 46.9 127.8 46.5 124 Z " /><path fill="rgb(253,253,253)" stroke="rgb(253,253,253)" stroke-width="1" opacity="1" d="M 53.5 124 Q 56.5 123.2 55 127 L 50 125.5 L 53.5 124 Z " /><path fill="rgb(253,253,253)" stroke="rgb(253,253,253)" stroke-width="1" opacity="1" d="M 63.5 124 L 63 125.5 L 62.5 127 L 61.5 125 L 63.5 124 Z " /><path fill="rgb(253,253,253)" stroke="rgb(253,253,253)" stroke-width="1" opacity="1" d="M 69 124 L 72 124.5 L 70.5 127 L 69 124 Z " /><path fill="rgb(253,253,253)" stroke="rgb(253,253,253)" stroke-width="1" opacity="1" d="M 82.5 124 Q 86.3 122.8 85 126.5 L 84 126.5 Q 84.8 124.3 82.5 125 L 79 126 L 78.5 128 L 78 125 L 82.5 124 Z " /><path fill="rgb(253,253,253)" stroke="rgb(253,253,253)" stroke-width="1" opacity="1" d="M 89.5 124 L 90.5 126 L 89.5 124 Z " /><path fill="rgb(253,253,253)" stroke="rgb(253,253,253)" stroke-width="1" opacity="1" d="M 73 125 L 76 126.5 L 74 126.5 L 73.5 128 L 73 125 Z " /><path fill="rgb(253,253,253)" stroke="rgb(253,253,253)" stroke-width="1" opacity="1" d="M 101.5 125 L 104 125.5 L 101.5 126 L 101.5 125 Z " /><path fill="rgb(253,253,253)" stroke="rgb(253,253,253)" stroke-width="1" opacity="1" d="M 48.5 127 L 49 129.5 L 48 129.5 L 48.5 127 Z " /><path fill="rgb(253,253,253)" stroke="rgb(253,253,253)" stroke-width="1" opacity="1" d="M 56.5 127 L 58 129.5 L 55 130 L 56.5 127 Z " /><path fill="rgb(253,253,253)" stroke="rgb(253,253,253)" stroke-width="1" opacity="1" d="M 68.5 127 L 69 130 Q 66.3 131.1 67 128.5 L 68.5 127 Z " /><path fill="rgb(253,253,253)" stroke="rgb(253,253,253)" stroke-width="1" opacity="1" d="M 89.5 127 L 90 130.5 L 89 130.5 L 89.5 127 Z " /><path fill="rgb(253,253,253)" stroke="rgb(253,253,253)" stroke-width="1" opacity="1" d="M 107.5 127 L 109 129.5 L 106 130 L 107.5 127 Z " /><path fill="rgb(253,253,253)" stroke="rgb(253,253,253)" stroke-width="1" opacity="1" d="M 113.5 129 L 112.5 131 L 113.5 129 Z " /><path fill="rgb(254,254,254)" stroke="rgb(254,254,254)" stroke-width="1" opacity="1" d="M 0 0 L 180 0 L 180 180 L 0 180 L 0 0 Z M 80 65 L 79 66 L 45 66 Q 46 70 43 72 L 46 72 L 47 78 L 46 81 L 48 84 Q 49 86 47 85 L 48 88 L 47 90 L 49 90 L 48 93 L 48 94 L 50 95 L 50 101 L 72 101 L 74 98 Q 73 91 76 89 L 75 86 L 72 87 L 61 86 Q 58 85 60 84 L 58 81 L 78 80 Q 81 78 81 74 L 82 71 Q 85 72 83 68 L 80 65 Z M 99 65 L 96 70 L 99 79 L 102 80 L 132 80 L 133 79 L 132 77 Q 135 75 133 74 Q 132 69 134 68 L 131 65 L 129 66 L 116 66 L 114 66 L 100 66 L 99 65 Z M 136 75 L 133 77 L 137 77 L 136 75 Z M 84 86 L 84 88 L 82 88 L 81 93 L 81 95 L 80 95 L 79 100 L 80 101 L 103 101 Q 104 98 100 99 L 100 98 L 98 95 Q 100 89 96 90 L 97 88 L 95 86 L 84 86 Z M 104 86 L 103 89 L 105 94 L 104 96 Q 107 97 106 101 L 110 100 L 112 100 L 116 101 L 116 104 Q 117 108 113 106 L 111 106 L 108 111 Q 107 113 111 112 L 111 115 Q 114 116 112 118 L 117 121 L 117 119 L 121 120 Q 126 121 127 119 L 126 112 L 129 111 L 128 107 L 130 106 Q 127 104 128 100 L 130 100 L 130 87 L 128 88 L 126 86 L 104 86 Z M 101 94 L 100 97 L 101 97 L 101 94 Z M 78 104 L 76 109 L 76 111 L 74 115 L 72 116 L 73 119 L 108 119 Q 103 115 103 107 L 102 107 L 102 105 L 97 106 L 79 106 L 83 105 L 78 104 Z M 53 105 Q 53 109 50 108 L 50 112 L 52 112 L 51 116 L 53 119 Q 54 121 56 119 L 64 119 L 65 120 L 67 116 Q 66 113 69 114 L 68 112 L 69 106 L 67 105 L 65 106 L 55 105 L 53 105 Z M 155 108 L 155 111 L 158 109 L 155 108 Z M 176 108 L 176 111 L 179 109 L 176 108 Z M 136 112 L 133 115 L 137 115 Q 138 111 136 112 Z M 60 122 L 60 124 L 59 125 Q 57 121 56 124 L 52 123 L 46 125 Q 49 126 48 130 L 60 130 L 61 129 L 62 130 L 82 130 L 83 128 L 82 125 Q 85 124 84 127 L 84 129 Q 85 131 89 130 L 91 130 L 112 130 L 113 131 L 114 130 L 132 130 L 132 126 Q 129 127 130 125 Q 129 122 128 124 Q 125 123 126 126 L 124 126 Q 119 127 121 123 L 118 125 L 118 126 L 114 126 L 113 123 L 111 126 L 107 126 L 104 125 L 101 126 Q 92 128 89 124 L 89 122 Q 86 121 87 124 L 79 123 L 75 123 L 73 124 L 68 123 L 63 125 Q 59 126 61 122 L 60 122 Z " /><path fill="rgb(35,86,135)" stroke="rgb(35,86,135)" stroke-width="1" opacity="1" d="M 47.5 67 L 80.5 67 L 81 70.5 L 78 79 L 57 79.5 L 58 80.5 L 58 88 L 73.5 88 L 74 91.5 L 70.5 99 L 51.5 99 Q 50.5 99 51 94.5 L 46 68.5 L 47.5 67 Z " /><path fill="rgb(35,86,135)" stroke="rgb(35,86,135)" stroke-width="1" opacity="1" d="M 98 67 L 131.5 67 L 132 67.5 L 132 74.5 L 131 79 L 101.5 79 L 101 77.5 L 98 67 Z " /><path fill="rgb(35,86,135)" stroke="rgb(35,86,135)" stroke-width="1" opacity="1" d="M 85.5 88 L 93.5 88 L 95 89.5 L 98 99 L 81.5 99 L 81 97.5 L 85.5 88 Z " /><path fill="rgb(35,86,135)" stroke="rgb(35,86,135)" stroke-width="1" opacity="1" d="M 105 88 L 128.5 88 Q 129.5 88 129 92.5 L 127 98.5 L 125 116.5 L 123.5 118 L 114.5 118 L 114 116.5 L 111 107 L 117 107 L 117 103.5 L 118 99 L 108.5 99 L 107 97.5 L 105 88 Z " /><path fill="rgb(35,86,135)" stroke="rgb(35,86,135)" stroke-width="1" opacity="1" d="M 53 107 L 67.5 107 L 68 108.5 L 65 118 L 54 118 L 54 113.5 L 53 107 Z " /><path fill="rgb(35,86,135)" stroke="rgb(35,86,135)" stroke-width="1" opacity="1" d="M 78 107 L 99.5 107 L 102 109.5 L 104 118 L 75.5 118 L 75 115.5 L 78 107 Z " /></svg>